<svg version="1.2" xmlns="http://www.w3.org/2000/svg" viewBox="0 0 2500 2500" width="25" height="25">
	<title>etherscan-logo-svg</title>
	<style>
		.s0 { fill: #ffffff } 
	</style>
	<g id="Layer_x0020_1">
		<g id="circle">
			<g id="Group_3">
				<path id="Path_1" class="s0" d="m520.6 1188.9c0-57.7 47.4-105.1 105-105.1h177.1c57.7 0 107.1 47.4 107.1 107.2v667.9c20.6-6.2 45.3-12.4 74.2-18.6 39.1-10.3 68-45.3 68-86.6v-828.7c0-57.7 47.4-107.2 107.1-107.2h177.1c57.7 0 107.1 47.4 107.1 107.2v769c0 0 43.3-18.6 86.5-37.1 33-14.4 53.6-45.3 53.6-82.5v-917.3c0-57.7 47.4-107.2 105.1-107.2h177.1c57.7 0 105.1 47.4 105.1 107.2v756.6c152.4-111.3 309-245.3 432.6-406.1 37.1-47.4 47.4-109.3 26.8-167-226.6-651.4-939.2-997.8-1590.1-771-650.9 226.8-996.9 940-770.4 1591.5 24.7 74.2 57.7 144.3 96.8 212.3 30.9 53.6 88.6 84.5 150.4 78.3 33-2.1 74.2-6.2 125.6-12.4 45.3-4.1 78.3-43.3 78.3-88.7z"/>
				<path id="Path_2" class="s0" d="m516.4 2260.9c558.2 406.1 1338.9 282.4 1744.6-276.2 154.5-214.4 238.9-472.1 238.9-735.9 0-28.9-2.1-57.7-4.1-86.6-455.1 682.3-1297.6 1001.8-1979.4 1098.7z"/>
			</g>
		</g>
	</g>
</svg>