<svg version="1.2" xmlns="http://www.w3.org/2000/svg" viewBox="0 0 24 24" width="24" height="24">
	<title>telegram-svgrepo-com (1)-svg</title>
	<style>
		.s0 { fill: #ffffff } 
	</style>
	<g id="页面-1">
		<g id="Brand">
			<g id="telegram_fill">
				<path id="路径" fill-rule="evenodd" class="s0" d="m19.8 4.4c1.1-0.4 2.2 0.5 2 1.7l-2.2 13.7c-0.2 1.3-1.7 2.1-2.9 1.4-1-0.5-2.6-1.4-3.9-2.3-0.7-0.4-2.8-1.8-2.5-2.8 0.2-0.9 3.7-4.2 5.7-6.1 0.8-0.8 0.4-1.2-0.5-0.5-2.3 1.7-6 4.4-7.2 5.1-1.1 0.7-1.7 0.8-2.3 0.7-1.3-0.2-2.4-0.5-3.3-0.9-1.3-0.5-1.2-2.3 0-2.8z"/>
			</g>
		</g>
	</g>
</svg>